<svg width="18" height="18" viewBox="0 0 18 18" fill="none" xmlns="http://www.w3.org/2000/svg">
<path d="M13.5 6V4.5C13.5 4.10218 13.342 3.72064 13.0607 3.43934C12.7794 3.15804 12.3978 3 12 3H3C2.60218 3 2.22064 3.15804 1.93934 3.43934C1.65804 3.72064 1.5 4.10218 1.5 4.5V9.75C1.5 10.1478 1.65804 10.5294 1.93934 10.8107C2.22064 11.092 2.60218 11.25 3 11.25H9" stroke="#014DFF" stroke-width="1.5" stroke-linecap="round" stroke-linejoin="round"/>
<path d="M7.5 14.2498V11.2798V13.6423" stroke="#014DFF" stroke-width="1.5" stroke-linecap="round" stroke-linejoin="round"/>
<path d="M5.25 14.25H9" stroke="#014DFF" stroke-width="1.5" stroke-linecap="round" stroke-linejoin="round"/>
<path d="M15 9H13.5C12.6716 9 12 9.67157 12 10.5V15C12 15.8284 12.6716 16.5 13.5 16.5H15C15.8284 16.5 16.5 15.8284 16.5 15V10.5C16.5 9.67157 15.8284 9 15 9Z" stroke="#014DFF" stroke-width="1.5" stroke-linecap="round" stroke-linejoin="round"/>
</svg>
