<svg width="18" height="18" viewBox="0 0 18 18" fill="none" xmlns="http://www.w3.org/2000/svg">
<path d="M9.525 2.25H3C2.60218 2.25 2.22064 2.40804 1.93934 2.68934C1.65804 2.97064 1.5 3.35218 1.5 3.75V15.9645C1.50001 16.0698 1.53125 16.1727 1.58976 16.2603C1.64828 16.3479 1.73144 16.4161 1.82873 16.4564C1.92602 16.4967 2.03308 16.5072 2.13637 16.4867C2.23965 16.4662 2.33453 16.4155 2.409 16.341L4.0605 14.6895C4.34174 14.4082 4.72321 14.2501 5.121 14.25H15C15.3978 14.25 15.7794 14.092 16.0607 13.8107C16.342 13.5294 16.5 13.1478 16.5 12.75V9.225" stroke="#636363" stroke-width="1.5" stroke-linecap="round" stroke-linejoin="round"/>
<path d="M14.25 6.75C15.4926 6.75 16.5 5.74264 16.5 4.5C16.5 3.25736 15.4926 2.25 14.25 2.25C13.0074 2.25 12 3.25736 12 4.5C12 5.74264 13.0074 6.75 14.25 6.75Z" stroke="#636363" stroke-width="1.5" stroke-linecap="round" stroke-linejoin="round"/>
</svg>
