<svg width="44" height="44" viewBox="0 0 44 44" fill="none" xmlns="http://www.w3.org/2000/svg">
<rect width="44" height="44" rx="22" fill="#99EC64"/>
<path d="M21.5607 13.8168C20.3829 13.8168 18.5598 12.4777 16.64 12.5261C14.107 12.5584 11.7838 13.9943 10.477 16.2691C7.8473 20.8348 9.79944 27.5786 12.3646 31.2892C13.623 33.0962 15.1073 35.129 17.0756 35.0644C18.9632 34.9838 19.6731 33.8383 21.964 33.8383C24.2388 33.8383 24.8841 35.0644 26.8847 35.016C28.9175 34.9838 30.2081 33.1768 31.4504 31.3538C32.8863 29.2564 33.4832 27.2236 33.5155 27.1107C33.4671 27.0946 29.5628 25.5942 29.5144 21.0768C29.4821 17.3016 32.5959 15.4947 32.7411 15.414C30.9664 12.8165 28.2399 12.5261 27.288 12.4616C24.8035 12.268 22.7223 13.8168 21.5607 13.8168ZM25.7553 10.0093C26.804 8.75094 27.4977 6.99241 27.3041 5.25C25.8037 5.31453 23.9968 6.25027 22.9159 7.50867C21.9479 8.62187 21.1089 10.4127 21.3348 12.1228C22.9965 12.2519 24.7067 11.2677 25.7553 10.0093Z" fill="#20195F"/>
</svg>
