<svg width="16" height="16" viewBox="0 0 16 16" fill="none" xmlns="http://www.w3.org/2000/svg">
<path d="M7.99967 8.66671C8.36786 8.66671 8.66634 8.36823 8.66634 8.00004C8.66634 7.63185 8.36786 7.33337 7.99967 7.33337C7.63148 7.33337 7.33301 7.63185 7.33301 8.00004C7.33301 8.36823 7.63148 8.66671 7.99967 8.66671Z" stroke="#014DFF" stroke-width="1.33333" stroke-linecap="round" stroke-linejoin="round"/>
<path d="M12.6667 8.66671C13.0349 8.66671 13.3333 8.36823 13.3333 8.00004C13.3333 7.63185 13.0349 7.33337 12.6667 7.33337C12.2985 7.33337 12 7.63185 12 8.00004C12 8.36823 12.2985 8.66671 12.6667 8.66671Z" stroke="#014DFF" stroke-width="1.33333" stroke-linecap="round" stroke-linejoin="round"/>
<path d="M3.33366 8.66671C3.70185 8.66671 4.00033 8.36823 4.00033 8.00004C4.00033 7.63185 3.70185 7.33337 3.33366 7.33337C2.96547 7.33337 2.66699 7.63185 2.66699 8.00004C2.66699 8.36823 2.96547 8.66671 3.33366 8.66671Z" stroke="#014DFF" stroke-width="1.33333" stroke-linecap="round" stroke-linejoin="round"/>
</svg>
