<svg width="16" height="16" viewBox="0 0 16 16" fill="none" xmlns="http://www.w3.org/2000/svg">
<g clip-path="url(#clip0_12567_35824)">
<path d="M8.00004 14.6663C4.31804 14.6663 1.33337 11.6817 1.33337 7.99967C1.33337 4.31767 4.31804 1.33301 8.00004 1.33301C11.682 1.33301 14.6667 4.31767 14.6667 7.99967C14.6667 11.6817 11.682 14.6663 8.00004 14.6663ZM8.00004 13.333C9.41453 13.333 10.7711 12.7711 11.7713 11.7709C12.7715 10.7707 13.3334 9.41416 13.3334 7.99967C13.3334 6.58519 12.7715 5.22863 11.7713 4.22844C10.7711 3.22824 9.41453 2.66634 8.00004 2.66634C6.58555 2.66634 5.229 3.22824 4.2288 4.22844C3.22861 5.22863 2.66671 6.58519 2.66671 7.99967C2.66671 9.41416 3.22861 10.7707 4.2288 11.7709C5.229 12.7711 6.58555 13.333 8.00004 13.333ZM7.33337 4.66634H8.66671V5.99967H7.33337V4.66634ZM7.33337 7.33301H8.66671V11.333H7.33337V7.33301Z" fill="#E41D24"/>
</g>
<defs>
<clipPath id="clip0_12567_35824">
<rect width="16" height="16" fill="white"/>
</clipPath>
</defs>
</svg>
