<svg width="14" height="14" viewBox="0 0 14 14" fill="none" xmlns="http://www.w3.org/2000/svg">
<path fill-rule="evenodd" clip-rule="evenodd" d="M7 13.125C10.3828 13.125 13.125 10.3828 13.125 7C13.125 3.61726 10.3828 0.875 7 0.875C3.61726 0.875 0.875 3.61726 0.875 7C0.875 10.3828 3.61726 13.125 7 13.125ZM5.27654 4.34846C5.02026 4.09218 4.60474 4.09218 4.34846 4.34846C4.09218 4.60474 4.09218 5.02026 4.34846 5.27654L6.07192 7L4.34846 8.72346C4.09218 8.97974 4.09218 9.39526 4.34846 9.65151C4.60474 9.9078 5.02026 9.9078 5.27654 9.65151L7 7.92808L8.72346 9.65151C8.97974 9.9078 9.39526 9.9078 9.65151 9.65151C9.9078 9.39526 9.9078 8.97974 9.65151 8.72346L7.92808 7L9.65151 5.27654C9.9078 5.02026 9.9078 4.60474 9.65151 4.34846C9.39526 4.09218 8.97974 4.09218 8.72346 4.34846L7 6.07192L5.27654 4.34846Z" fill="#D76262"/>
</svg>
