<svg width="25" height="24" viewBox="0 0 25 24" fill="none" xmlns="http://www.w3.org/2000/svg">
<path d="M24.2602 12.2727C24.2602 11.4218 24.1839 10.6036 24.0421 9.81818H12.7402V14.4655H19.1984C18.9148 15.96 18.0639 17.2255 16.7875 18.0764V21.0982H20.6821C22.9511 19.0036 24.2602 15.9273 24.2602 12.2727Z" fill="#4285F4"/>
<path d="M12.7402 24C15.9802 24 18.6966 22.9309 20.6821 21.0982L16.7875 18.0764C15.7184 18.7964 14.3548 19.2327 12.7402 19.2327C9.62023 19.2327 6.96933 17.1273 6.02023 14.2909H2.02751V17.3891C4.00205 21.3055 8.04933 24 12.7402 24Z" fill="#34A853"/>
<path d="M6.02023 14.28C5.78023 13.56 5.63842 12.7964 5.63842 12C5.63842 11.2036 5.78023 10.44 6.02023 9.72V6.62182H2.02751C1.20933 8.23636 0.740234 10.0582 0.740234 12C0.740234 13.9418 1.20933 15.7636 2.02751 17.3782L5.1366 14.9564L6.02023 14.28Z" fill="#FBBC05"/>
<path d="M12.7402 4.77818C14.5075 4.77818 16.0784 5.38909 17.333 6.56727L20.7693 3.13091C18.6857 1.18909 15.9802 0 12.7402 0C8.04933 0 4.00205 2.69455 2.02751 6.62182L6.02023 9.72C6.96933 6.88364 9.62023 4.77818 12.7402 4.77818Z" fill="#EA4335"/>
</svg>
