<svg width="119" height="28" viewBox="0 0 119 28" fill="none" xmlns="http://www.w3.org/2000/svg">
<path d="M14.1651 11.7315C13.8989 11.6357 13.638 11.5372 13.3851 11.4333C8.53992 9.50592 4.17126 6.06637 5.20419 3.22847C5.34262 2.84511 5.5769 2.50169 5.89636 2.21151C7.72529 0.505045 12.4054 0.608871 17.5328 2.47507C22.6628 4.34393 26.3154 7.27234 26.6162 9.76415C26.6748 10.1688 26.6348 10.5841 26.4911 10.9781C26.4325 11.1432 26.3553 11.2949 26.2675 11.4333C24.7367 13.9571 19.0156 13.4965 14.1651 11.7315ZM16.9604 4.04842C12.2004 2.31534 8.1752 2.37923 7.03312 3.44411C6.90533 3.56124 6.82547 3.67305 6.78021 3.8035C6.29835 5.12395 9.14956 7.94587 14.0107 9.88129C14.253 9.97979 14.4926 10.0703 14.7375 10.1608C19.7291 11.9791 24.0738 11.8247 24.8485 10.5522C24.8805 10.5042 24.9018 10.459 24.9204 10.4084C24.9683 10.2753 24.9816 10.1422 24.9577 9.99044C24.7686 8.41974 21.7258 5.78417 16.9604 4.04842Z" fill="#20195F"/>
<path d="M4.58923 19.9683C3.24216 19.4785 2.89341 18.6239 2.81621 18.0782C2.80556 17.9664 2.80023 17.8838 2.80023 17.796C2.80023 17.6016 2.81887 17.4153 2.8588 17.2449C2.86412 17.2103 2.87211 17.1784 2.8801 17.1437C2.89607 17.0745 2.91737 17.0027 2.94399 16.9281C2.97594 16.8376 3.01055 16.7471 3.0558 16.6592C4.05412 14.4123 8.21247 11.6863 13.4224 9.86531C13.6141 9.79876 13.827 9.80941 14.016 9.88129C14.2503 9.97713 14.4926 10.0676 14.7375 10.1582C19.7291 11.9764 24.0738 11.822 24.8485 10.5495C25.0562 10.2087 25.4741 10.0623 25.8495 10.1981H25.8522C26.2275 10.3365 26.4538 10.7199 26.3926 11.1139C25.9879 13.7095 21.2412 16.6007 16.7155 18.3178C16.1538 18.5334 15.5974 18.7278 15.065 18.8955C11.6254 20.0242 8.3509 20.5354 6.0907 20.2931C6.07739 20.2931 6.06674 20.2905 6.05343 20.2878C5.46775 20.2239 4.98589 20.1121 4.58923 19.9683ZM4.49339 17.615C4.49339 17.6176 4.49072 17.6229 4.49072 17.6256C4.48008 17.6709 4.47475 17.7241 4.47475 17.7853C4.47475 17.812 4.47475 17.8359 4.47741 17.8652C4.52533 18.2086 5.22815 18.5174 6.26108 18.6266C6.27173 18.6266 6.28504 18.6293 6.29835 18.6319C8.33227 18.8422 11.3352 18.3577 14.5485 17.3035C15.0596 17.1411 15.5841 16.9574 16.1165 16.7524C16.1165 16.7524 16.1165 16.7524 16.1192 16.7524C19.0662 15.6343 21.4036 14.3059 22.8971 13.1185C20.4319 13.406 17.1361 12.815 14.1625 11.7315C14.0001 11.6729 13.8403 11.6117 13.6806 11.5505C8.61446 13.3714 5.22017 15.8845 4.5839 17.3541C4.57591 17.3754 4.56527 17.394 4.55462 17.4126C4.54131 17.4393 4.53332 17.4659 4.52533 17.4898C4.51735 17.5298 4.5067 17.5724 4.49339 17.615Z" fill="#20195F"/>
<path d="M11.9076 25.4338C6.75891 23.5596 3.01853 20.5141 2.81354 18.0303C2.77627 17.5777 3.10372 17.1784 3.5563 17.1278C4.00887 17.0772 4.41618 17.394 4.48008 17.8439C4.53066 18.2086 5.23348 18.5174 6.26641 18.6293C6.27706 18.6319 6.29037 18.6319 6.30102 18.6346C8.33493 18.8422 11.3379 18.3577 14.5538 17.3061C15.0809 17.1358 15.6054 16.9521 16.1192 16.7551C16.3242 16.6779 16.5478 16.6805 16.7501 16.7684C21.1028 18.6399 24.0925 21.2701 24.364 23.4691C24.4226 23.8791 24.3826 24.2944 24.2389 24.6831C23.142 27.686 17.0669 27.3107 11.9076 25.4338ZM6.11466 20.2984C7.49102 21.5257 9.682 22.8435 12.48 23.8605C18.0999 25.905 22.197 25.3832 22.6629 24.108C22.7108 23.9776 22.7214 23.8392 22.7001 23.6874C22.5377 22.3803 20.3254 20.192 16.3934 18.4402C15.9568 18.6026 15.5122 18.757 15.0676 18.8981C11.6361 20.0216 8.37487 20.5301 6.11466 20.2984Z" fill="#20195F"/>
<path d="M6.17855 19.4599H6.18122M14.1651 11.7315C13.8989 11.6357 13.638 11.5372 13.3851 11.4333C8.53992 9.50592 4.17126 6.06637 5.20419 3.22847C5.34262 2.84511 5.5769 2.50169 5.89636 2.21151C7.72529 0.505045 12.4054 0.608871 17.5328 2.47507C22.6628 4.34393 26.3154 7.27234 26.6162 9.76415C26.6748 10.1688 26.6348 10.5841 26.4911 10.9781C26.4325 11.1432 26.3553 11.2949 26.2675 11.4333C24.7367 13.9571 19.0156 13.4965 14.1651 11.7315ZM16.9604 4.04842C12.2004 2.31534 8.1752 2.37923 7.03312 3.44411C6.90533 3.56124 6.82547 3.67305 6.78021 3.8035C6.29835 5.12395 9.14956 7.94587 14.0107 9.88129C14.253 9.97979 14.4926 10.0703 14.7375 10.1608C19.7291 11.9791 24.0738 11.8247 24.8485 10.5522C24.8805 10.5042 24.9018 10.459 24.9204 10.4084C24.9683 10.2753 24.9816 10.1422 24.9577 9.99044C24.7686 8.41974 21.7258 5.78417 16.9604 4.04842ZM4.58923 19.9683C3.24216 19.4785 2.89341 18.6239 2.81621 18.0782C2.80556 17.9664 2.80023 17.8838 2.80023 17.796C2.80023 17.6016 2.81887 17.4153 2.8588 17.2449C2.86412 17.2103 2.87211 17.1784 2.8801 17.1437C2.89607 17.0745 2.91737 17.0027 2.94399 16.9281C2.97594 16.8376 3.01055 16.7471 3.0558 16.6592C4.05412 14.4123 8.21247 11.6863 13.4224 9.86531C13.6141 9.79876 13.827 9.80941 14.016 9.88129C14.2503 9.97713 14.4926 10.0676 14.7375 10.1582C19.7291 11.9764 24.0738 11.822 24.8485 10.5495C25.0562 10.2087 25.4741 10.0623 25.8495 10.1981H25.8522C26.2275 10.3365 26.4538 10.7199 26.3926 11.1139C25.9879 13.7095 21.2412 16.6007 16.7155 18.3178C16.1538 18.5334 15.5974 18.7278 15.065 18.8955C11.6254 20.0242 8.3509 20.5354 6.0907 20.2931C6.07739 20.2931 6.06674 20.2905 6.05343 20.2878C5.46775 20.2239 4.98589 20.1121 4.58923 19.9683ZM4.49339 17.615C4.49339 17.6176 4.49072 17.6229 4.49072 17.6256C4.48008 17.6709 4.47475 17.7241 4.47475 17.7853C4.47475 17.812 4.47475 17.8359 4.47741 17.8652C4.52533 18.2086 5.22815 18.5174 6.26108 18.6266C6.27173 18.6266 6.28504 18.6293 6.29835 18.6319C8.33227 18.8422 11.3352 18.3577 14.5485 17.3035C15.0596 17.1411 15.5841 16.9574 16.1165 16.7524C16.1165 16.7524 16.1165 16.7524 16.1192 16.7524C19.0662 15.6343 21.4036 14.3059 22.8971 13.1185C20.4319 13.406 17.1361 12.815 14.1625 11.7315C14.0001 11.6729 13.8403 11.6117 13.6806 11.5505C8.61446 13.3714 5.22016 15.8845 4.5839 17.3541C4.57591 17.3754 4.56527 17.394 4.55462 17.4126C4.54131 17.4393 4.53332 17.4659 4.52533 17.4898C4.51735 17.5298 4.5067 17.5724 4.49339 17.615ZM11.9076 25.4338C6.75891 23.5596 3.01853 20.5141 2.81354 18.0303C2.77627 17.5777 3.10372 17.1784 3.5563 17.1278C4.00887 17.0772 4.41618 17.394 4.48008 17.8439C4.53066 18.2086 5.23348 18.5174 6.26641 18.6293C6.27706 18.6319 6.29037 18.6319 6.30102 18.6346C8.33493 18.8422 11.3379 18.3577 14.5538 17.3061C15.0809 17.1358 15.6054 16.9521 16.1192 16.7551C16.3242 16.6779 16.5478 16.6805 16.7501 16.7684C21.1028 18.6399 24.0925 21.2701 24.364 23.4691C24.4226 23.8791 24.3826 24.2944 24.2389 24.6831C23.142 27.686 17.0669 27.3107 11.9076 25.4338ZM6.11466 20.2984C7.49102 21.5257 9.682 22.8435 12.48 23.8605C18.0999 25.905 22.197 25.3832 22.6629 24.108C22.7108 23.9776 22.7214 23.8392 22.7001 23.6874C22.5377 22.3803 20.3254 20.192 16.3934 18.4402C15.9568 18.6026 15.5122 18.757 15.0676 18.8981C11.6361 20.0216 8.37487 20.5301 6.11466 20.2984Z" stroke="#20195F" stroke-width="0.798658" stroke-miterlimit="10"/>
<path d="M113.336 8.21777H116.2L111.747 21.396C111.419 22.3953 111.009 23.0814 110.517 23.4543C110.039 23.8272 109.353 24.0137 108.458 24.0137H106.176V21.5526H108.324C108.667 21.5526 108.906 21.4929 109.04 21.3736C109.189 21.2542 109.316 21.0305 109.42 20.7024L109.801 19.5389H108.637L104.386 8.21777H107.34L110.427 16.8988H110.606L113.336 8.21777Z" fill="#20195F"/>
<path d="M97.0294 19.8296C95.9704 19.8296 95.0232 19.5761 94.1879 19.0689C93.3676 18.5618 92.7262 17.8607 92.2638 16.9658C91.8014 16.0559 91.5702 15.0267 91.5702 13.8782C91.5702 12.7297 91.8014 11.7079 92.2638 10.813C92.7262 9.90311 93.3676 9.19461 94.1879 8.68747C95.0232 8.18033 95.9704 7.92676 97.0294 7.92676C97.8498 7.92676 98.603 8.09829 99.2892 8.44136C99.9753 8.76951 100.505 9.26919 100.878 9.9404H101.034V8.21762H103.831V19.5388H101.034V17.816H100.878C100.505 18.4872 99.9753 18.9943 99.2892 19.3374C98.6179 19.6656 97.8647 19.8296 97.0294 19.8296ZM97.7677 17.279C98.7671 17.279 99.5576 16.9732 100.139 16.3617C100.736 15.7501 101.034 14.9223 101.034 13.8782C101.034 12.849 100.736 12.0286 100.139 11.4171C99.5576 10.7906 98.7671 10.4774 97.7677 10.4774C96.7684 10.4774 95.9704 10.7906 95.3737 11.4171C94.7771 12.0286 94.4788 12.849 94.4788 13.8782C94.4788 14.9223 94.7771 15.7501 95.3737 16.3617C95.9704 16.9732 96.7684 17.279 97.7677 17.279Z" fill="#20195F"/>
<path d="M78.6433 24.0135V8.21762H81.4177V9.9404H81.5967C81.9695 9.26919 82.4916 8.76951 83.1628 8.44136C83.8489 8.09829 84.6022 7.92676 85.4226 7.92676C86.4816 7.92676 87.4288 8.18033 88.264 8.68747C89.0993 9.19461 89.7482 9.90311 90.2106 10.813C90.673 11.7079 90.9042 12.7297 90.9042 13.8782C90.9042 15.0267 90.673 16.0559 90.2106 16.9658C89.7482 17.8607 89.0993 18.5618 88.264 19.0689C87.4288 19.5761 86.4816 19.8296 85.4226 19.8296C84.6022 19.8296 83.8489 19.6656 83.1628 19.3374C82.4916 18.9943 81.9695 18.4872 81.5967 17.816H81.4177V24.0135H78.6433ZM84.6842 17.279C85.6836 17.279 86.4816 16.9732 87.0782 16.3617C87.6749 15.7352 87.9732 14.9074 87.9732 13.8782C87.9732 12.8341 87.6749 12.0063 87.0782 11.3947C86.4816 10.7831 85.6836 10.4774 84.6842 10.4774C83.6998 10.4774 82.9092 10.7831 82.3126 11.3947C81.716 12.0063 81.4177 12.8341 81.4177 13.8782C81.4177 14.9074 81.716 15.7352 82.3126 16.3617C82.9092 16.9732 83.6998 17.279 84.6842 17.279Z" fill="#20195F"/>
<path d="M77.4732 19.5387H74.6988V8.21756H77.4732V19.5387ZM77.5179 6.51715H74.6541V3.89941H77.5179V6.51715Z" fill="#20195F"/>
<path d="M71.8762 6.18146C71.5033 6.18146 71.2423 6.24858 71.0931 6.38282C70.9589 6.51706 70.8918 6.77809 70.8918 7.1659V8.21747H73.8004V10.6786H71.026V19.5386H68.2293V10.6786H66.0143V8.21747H68.2293V7.05403C68.2293 5.90551 68.4679 5.0926 68.9453 4.61529C69.4375 4.12306 70.2653 3.87695 71.4287 3.87695H73.8004V6.18146H71.8762Z" fill="#20195F"/>
<path d="M55.4697 19.5388V8.21762H58.2441V9.76141H58.4231C58.7512 9.13494 59.2062 8.67255 59.7879 8.37423C60.3696 8.07592 61.0333 7.92676 61.7791 7.92676C63.0172 7.92676 63.9941 8.32203 64.7101 9.11257C65.4261 9.90311 65.7841 10.9845 65.7841 12.3568V19.5388H63.0097V13.0056C63.0097 12.2002 62.8009 11.5811 62.3832 11.1486C61.9805 10.7011 61.3988 10.4774 60.6381 10.4774C59.8774 10.4774 59.2882 10.7011 58.8705 11.1486C58.4529 11.5961 58.2441 12.2151 58.2441 13.0056V19.5388H55.4697Z" fill="#20195F"/>
<path d="M48.9124 7.92676C50.0311 7.92676 51.0305 8.17287 51.9105 8.66509C52.8054 9.1424 53.5065 9.81362 54.0136 10.6787C54.5208 11.5439 54.7743 12.5208 54.7743 13.6097C54.7743 13.9229 54.752 14.2511 54.7072 14.5942H45.8472C45.9665 15.504 46.3021 16.2051 46.854 16.6973C47.4208 17.1895 48.1591 17.4356 49.069 17.4356C49.8148 17.4356 50.4264 17.279 50.9037 16.9658C51.3959 16.6376 51.7017 16.2498 51.821 15.8023H54.573C54.4686 16.5332 54.1702 17.2044 53.678 17.816C53.1858 18.4275 52.5295 18.9198 51.7091 19.2927C50.9037 19.6506 49.9938 19.8296 48.9795 19.8296C47.8161 19.8296 46.7794 19.5761 45.8696 19.0689C44.9597 18.5618 44.2512 17.8533 43.744 16.9434C43.2369 16.0335 42.9833 15.0043 42.9833 13.8558C42.9833 12.7222 43.2369 11.7079 43.744 10.813C44.2512 9.90311 44.9522 9.19461 45.8472 8.68747C46.7571 8.18033 47.7788 7.92676 48.9124 7.92676ZM48.9571 10.3208C48.1815 10.3208 47.5327 10.5221 47.0106 10.9248C46.4886 11.3276 46.1306 11.8944 45.9367 12.6253H52.0447C51.8657 11.8944 51.5078 11.3276 50.9708 10.9248C50.4338 10.5221 49.7626 10.3208 48.9571 10.3208Z" fill="#20195F"/>
<path d="M42.706 19.5391H31.9666V16.4687L38.583 9.93163V9.73353H32.2134V7.00977H42.3357V10.105L35.7192 16.6172V16.8153H42.706V19.5391Z" fill="#20195F"/>
</svg>
