<svg width="88" height="20" viewBox="0 0 88 20" fill="none" xmlns="http://www.w3.org/2000/svg">
<path d="M10.3646 8.14529C10.1698 8.07517 9.97891 8.00309 9.79386 7.92712C6.2486 6.51681 3.05202 4.00007 3.80782 1.92356C3.90912 1.64305 4.08053 1.39177 4.31429 1.17944C5.65253 -0.0691931 9.07702 0.00677666 12.8288 1.37229C16.5824 2.73974 19.255 4.88248 19.4751 6.70576C19.518 7.00185 19.4888 7.30573 19.3836 7.59402C19.3407 7.7148 19.2843 7.82583 19.22 7.92712C18.0999 9.77378 13.9138 9.43678 10.3646 8.14529ZM12.41 2.52352C8.92702 1.25541 5.98173 1.30216 5.14606 2.08134C5.05256 2.16705 4.99412 2.24886 4.96101 2.34431C4.60843 3.31049 6.69468 5.37531 10.2516 6.79147C10.4289 6.86354 10.6042 6.92978 10.7834 6.99601C14.4358 8.32645 17.6149 8.21347 18.1817 7.28235C18.2051 7.24729 18.2207 7.21418 18.2343 7.17716C18.2694 7.07977 18.2791 6.98237 18.2616 6.87134C18.1233 5.72205 15.8968 3.79358 12.41 2.52352Z" fill="white"/>
<path d="M3.35785 14.1722C2.37219 13.8138 2.11701 13.1885 2.06052 12.7892C2.05272 12.7074 2.04883 12.647 2.04883 12.5827C2.04883 12.4405 2.06246 12.3042 2.09168 12.1795C2.09558 12.1542 2.10142 12.1308 2.10727 12.1055C2.11895 12.0548 2.13454 12.0022 2.15402 11.9477C2.17739 11.8815 2.20272 11.8152 2.23583 11.7509C2.96631 10.1069 6.009 8.11218 9.82113 6.77978C9.96138 6.73108 10.1172 6.73888 10.2555 6.79147C10.4269 6.8616 10.6042 6.92783 10.7834 6.99406C14.4358 8.3245 17.6149 8.21152 18.1817 7.28041C18.3337 7.03107 18.6395 6.92393 18.9141 7.02328H18.9161C19.1907 7.12457 19.3563 7.40507 19.3115 7.69337C19.0154 9.59262 15.5422 11.7081 12.2307 12.9645C11.8197 13.1223 11.4126 13.2645 11.023 13.3872C8.50627 14.2131 6.11029 14.5871 4.45649 14.4099C4.44675 14.4099 4.43896 14.4079 4.42922 14.406C4.00067 14.3592 3.64809 14.2774 3.35785 14.1722ZM3.28772 12.4503C3.28772 12.4522 3.28577 12.4561 3.28577 12.458C3.27798 12.4912 3.27409 12.5301 3.27409 12.5749C3.27409 12.5944 3.27409 12.6119 3.27603 12.6334C3.3111 12.8846 3.82535 13.1106 4.58116 13.1905C4.58895 13.1905 4.59869 13.1924 4.60843 13.1944C6.09666 13.3483 8.29394 12.9937 10.6451 12.2223C11.0191 12.1035 11.4029 11.9691 11.7925 11.8191C11.7925 11.8191 11.7925 11.8191 11.7944 11.8191C13.9508 11.001 15.6611 10.029 16.7539 9.16017C14.9501 9.37055 12.5385 8.93811 10.3627 8.14529C10.2438 8.10244 10.127 8.05764 10.0101 8.01283C6.30314 9.34523 3.81951 11.1841 3.35395 12.2594C3.34811 12.2749 3.34032 12.2886 3.33252 12.3022C3.32278 12.3217 3.31694 12.3412 3.3111 12.3587C3.30525 12.3879 3.29746 12.4191 3.28772 12.4503Z" fill="white"/>
<path d="M8.71275 18.1714C4.94542 16.8 2.20856 14.5716 2.05857 12.7541C2.0313 12.423 2.2709 12.1308 2.60205 12.0938C2.9332 12.0568 3.23123 12.2886 3.27798 12.6178C3.31499 12.8846 3.82925 13.1106 4.58505 13.1924C4.59285 13.1944 4.60259 13.1944 4.61038 13.1963C6.09861 13.3483 8.29589 12.9937 10.649 12.2243C11.0347 12.0996 11.4184 11.9652 11.7944 11.8211C11.9444 11.7646 12.108 11.7665 12.2561 11.8308C15.441 13.2002 17.6285 15.1248 17.8272 16.7338C17.87 17.0338 17.8408 17.3376 17.7356 17.622C16.9331 19.8193 12.4879 19.5447 8.71275 18.1714ZM4.47402 14.4138C5.48111 15.3118 7.08427 16.276 9.13156 17.0201C13.2437 18.5162 16.2416 18.1344 16.5825 17.2013C16.6175 17.1058 16.6253 17.0045 16.6097 16.8935C16.4909 15.9371 14.8722 14.3359 11.995 13.0541C11.6756 13.1729 11.3503 13.2859 11.025 13.3892C8.51406 14.2112 6.12783 14.5833 4.47402 14.4138Z" fill="white"/>
<path d="M4.52077 13.8002H4.52272M10.3646 8.14529C10.1698 8.07517 9.97891 8.00309 9.79386 7.92712C6.2486 6.51681 3.05202 4.00007 3.80782 1.92356C3.90912 1.64305 4.08053 1.39177 4.31429 1.17944C5.65253 -0.0691931 9.07702 0.00677666 12.8288 1.37229C16.5825 2.73974 19.255 4.88248 19.4751 6.70576C19.518 7.00185 19.4888 7.30573 19.3836 7.59402C19.3407 7.7148 19.2843 7.82583 19.22 7.92712C18.0999 9.77378 13.9138 9.43678 10.3646 8.14529ZM12.41 2.52352C8.92702 1.25541 5.98173 1.30216 5.14606 2.08134C5.05256 2.16705 4.99412 2.24886 4.96101 2.34431C4.60843 3.31049 6.69468 5.37531 10.2516 6.79147C10.4289 6.86355 10.6042 6.92978 10.7834 6.99601C14.4358 8.32645 17.6149 8.21347 18.1817 7.28235C18.2051 7.24729 18.2207 7.21418 18.2343 7.17716C18.2694 7.07977 18.2791 6.98237 18.2616 6.87134C18.1233 5.72205 15.8968 3.79358 12.41 2.52352ZM3.35785 14.1722C2.37219 13.8138 2.11701 13.1885 2.06052 12.7892C2.05272 12.7074 2.04883 12.647 2.04883 12.5827C2.04883 12.4405 2.06246 12.3042 2.09168 12.1795C2.09558 12.1542 2.10142 12.1308 2.10727 12.1055C2.11895 12.0548 2.13454 12.0022 2.15402 11.9477C2.17739 11.8815 2.20272 11.8152 2.23583 11.7509C2.96631 10.1069 6.009 8.11218 9.82113 6.77978C9.96138 6.73108 10.1172 6.73888 10.2555 6.79147C10.4269 6.8616 10.6042 6.92783 10.7834 6.99406C14.4358 8.3245 17.6149 8.21152 18.1817 7.28041C18.3337 7.03107 18.6395 6.92393 18.9141 7.02328H18.9161C19.1907 7.12457 19.3563 7.40507 19.3115 7.69337C19.0154 9.59262 15.5422 11.7081 12.2307 12.9645C11.8197 13.1223 11.4126 13.2645 11.023 13.3872C8.50627 14.2131 6.11029 14.5871 4.45649 14.4099C4.44675 14.4099 4.43896 14.4079 4.42922 14.406C4.00067 14.3592 3.64809 14.2774 3.35785 14.1722ZM3.28772 12.4503C3.28772 12.4522 3.28577 12.4561 3.28577 12.458C3.27798 12.4912 3.27409 12.5301 3.27409 12.5749C3.27409 12.5944 3.27409 12.6119 3.27603 12.6334C3.3111 12.8846 3.82535 13.1106 4.58116 13.1905C4.58895 13.1905 4.59869 13.1924 4.60843 13.1944C6.09666 13.3483 8.29394 12.9937 10.6451 12.2223C11.0191 12.1035 11.4029 11.9691 11.7925 11.8191C11.7925 11.8191 11.7925 11.8191 11.7944 11.8191C13.9508 11.001 15.6611 10.029 16.7539 9.16017C14.9501 9.37055 12.5385 8.93811 10.3627 8.14529C10.2438 8.10244 10.127 8.05764 10.0101 8.01283C6.30314 9.34523 3.81951 11.1841 3.35395 12.2594C3.34811 12.2749 3.34032 12.2886 3.33252 12.3022C3.32278 12.3217 3.31694 12.3412 3.3111 12.3587C3.30525 12.3879 3.29746 12.4191 3.28772 12.4503ZM8.71275 18.1714C4.94542 16.8 2.20856 14.5716 2.05857 12.7541C2.0313 12.423 2.2709 12.1308 2.60205 12.0938C2.9332 12.0568 3.23123 12.2886 3.27798 12.6178C3.31499 12.8846 3.82925 13.1106 4.58505 13.1924C4.59285 13.1944 4.60259 13.1944 4.61038 13.1963C6.09861 13.3483 8.29589 12.9937 10.649 12.2243C11.0347 12.0996 11.4184 11.9652 11.7944 11.8211C11.9444 11.7646 12.108 11.7665 12.2561 11.8308C15.441 13.2002 17.6285 15.1248 17.8272 16.7338C17.87 17.0338 17.8408 17.3376 17.7356 17.622C16.9331 19.8193 12.4879 19.5447 8.71275 18.1714ZM4.47402 14.4138C5.48111 15.3118 7.08427 16.276 9.13156 17.0201C13.2437 18.5162 16.2416 18.1344 16.5825 17.2013C16.6175 17.1058 16.6253 17.0045 16.6097 16.8935C16.4909 15.9371 14.8722 14.3359 11.995 13.0541C11.6756 13.1729 11.3503 13.2859 11.025 13.3892C8.51406 14.2112 6.12783 14.5833 4.47402 14.4138Z" stroke="white" stroke-width="0.584384" stroke-miterlimit="10"/>
<path d="M82.9283 5.57422H85.0238L81.766 15.2168C81.5259 15.948 81.2257 16.4501 80.8656 16.7229C80.5163 16.9958 80.0143 17.1322 79.3594 17.1322H77.6896V15.3314H79.2612C79.5122 15.3314 79.6868 15.2877 79.7851 15.2004C79.8942 15.1131 79.987 14.9494 80.0634 14.7093L80.3417 13.858H79.4904L76.3799 5.57422H78.5409L80.8001 11.9262H80.931L82.9283 5.57422Z" fill="white"/>
<path d="M70.9965 14.0707C70.2216 14.0707 69.5286 13.8852 68.9174 13.5141C68.3171 13.1431 67.8478 12.6301 67.5095 11.9752C67.1711 11.3095 67.002 10.5564 67.002 9.71604C67.002 8.87565 67.1711 8.12804 67.5095 7.4732C67.8478 6.80744 68.3171 6.28902 68.9174 5.91795C69.5286 5.54687 70.2216 5.36133 70.9965 5.36133C71.5968 5.36133 72.1479 5.48684 72.65 5.73786C73.152 5.97797 73.5395 6.34359 73.8123 6.83473H73.9269V5.57415H75.9733V13.8579H73.9269V12.5973H73.8123C73.5395 13.0885 73.152 13.4596 72.65 13.7106C72.1588 13.9507 71.6077 14.0707 70.9965 14.0707ZM71.5367 12.2044C72.268 12.2044 72.8464 11.9807 73.2721 11.5332C73.7086 11.0858 73.9269 10.48 73.9269 9.71604C73.9269 8.96297 73.7086 8.36269 73.2721 7.91522C72.8464 7.45683 72.268 7.22763 71.5367 7.22763C70.8055 7.22763 70.2216 7.45683 69.785 7.91522C69.3485 8.36269 69.1302 8.96297 69.1302 9.71604C69.1302 10.48 69.3485 11.0858 69.785 11.5332C70.2216 11.9807 70.8055 12.2044 71.5367 12.2044Z" fill="white"/>
<path d="M57.543 17.1321V5.57415H59.573V6.83473H59.704C59.9768 6.34359 60.3588 5.97797 60.8499 5.73786C61.352 5.48684 61.9031 5.36133 62.5034 5.36133C63.2783 5.36133 63.9713 5.54687 64.5825 5.91795C65.1937 6.28902 65.6685 6.80744 66.0068 7.4732C66.3451 8.12804 66.5143 8.87565 66.5143 9.71604C66.5143 10.5564 66.3451 11.3095 66.0068 11.9752C65.6685 12.6301 65.1937 13.1431 64.5825 13.5141C63.9713 13.8852 63.2783 14.0707 62.5034 14.0707C61.9031 14.0707 61.352 13.9507 60.8499 13.7106C60.3588 13.4596 59.9768 13.0885 59.704 12.5973H59.573V17.1321H57.543ZM61.9632 12.2044C62.6944 12.2044 63.2783 11.9807 63.7149 11.5332C64.1514 11.0748 64.3697 10.4691 64.3697 9.71604C64.3697 8.95205 64.1514 8.34632 63.7149 7.89885C63.2783 7.45137 62.6944 7.22763 61.9632 7.22763C61.2428 7.22763 60.6644 7.45137 60.2278 7.89885C59.7913 8.34632 59.573 8.95205 59.573 9.71604C59.573 10.4691 59.7913 11.0748 60.2278 11.5332C60.6644 11.9807 61.2428 12.2044 61.9632 12.2044Z" fill="white"/>
<path d="M56.6868 13.8575H54.6568V5.57368H56.6868V13.8575ZM56.7195 4.32948H54.624V2.41406H56.7195V4.32948Z" fill="white"/>
<path d="M52.592 4.08466C52.3191 4.08466 52.1281 4.13377 52.019 4.232C51.9207 4.33023 51.8716 4.52122 51.8716 4.80499V5.57443H53.9999V7.37525H51.9699V13.8582H49.9235V7.37525H48.3027V5.57443H49.9235V4.72313C49.9235 3.88275 50.0981 3.28793 50.4473 2.93868C50.8075 2.57852 51.4132 2.39844 52.2645 2.39844H53.9999V4.08466H52.592Z" fill="white"/>
<path d="M40.5869 13.8579V5.57415H42.6169V6.70376H42.7479C42.988 6.24537 43.3209 5.90703 43.7465 5.68875C44.1722 5.47047 44.6579 5.36133 45.2036 5.36133C46.1094 5.36133 46.8243 5.65055 47.3482 6.229C47.872 6.80744 48.134 7.59871 48.134 8.6028V13.8579H46.104V9.07756C46.104 8.4882 45.9512 8.03527 45.6456 7.71876C45.3509 7.39134 44.9253 7.22763 44.3686 7.22763C43.812 7.22763 43.3809 7.39134 43.0753 7.71876C42.7697 8.04619 42.6169 8.49912 42.6169 9.07756V13.8579H40.5869Z" fill="white"/>
<path d="M35.7885 5.36133C36.6071 5.36133 37.3383 5.54141 37.9823 5.90157C38.6371 6.25082 39.1501 6.74196 39.5211 7.37497C39.8922 8.00799 40.0778 8.72286 40.0778 9.51958C40.0778 9.74878 40.0614 9.98889 40.0286 10.2399H33.5457C33.633 10.9057 33.8786 11.4186 34.2824 11.7788C34.6971 12.139 35.2374 12.319 35.9031 12.319C36.4488 12.319 36.8963 12.2044 37.2456 11.9752C37.6057 11.7351 37.8295 11.4514 37.9168 11.1239H39.9304C39.854 11.6587 39.6357 12.1499 39.2756 12.5973C38.9154 13.0448 38.4352 13.405 37.8349 13.6778C37.2456 13.9398 36.5798 14.0707 35.8376 14.0707C34.9863 14.0707 34.2278 13.8852 33.5621 13.5141C32.8963 13.1431 32.3779 12.6246 32.0068 11.9589C31.6357 11.2931 31.4502 10.54 31.4502 9.69967C31.4502 8.8702 31.6357 8.12804 32.0068 7.4732C32.3779 6.80744 32.8909 6.28902 33.5457 5.91795C34.2115 5.54687 34.9591 5.36133 35.7885 5.36133ZM35.8213 7.11303C35.2537 7.11303 34.779 7.26037 34.397 7.55505C34.015 7.84973 33.7531 8.26447 33.6112 8.79926H38.0805C37.9495 8.26447 37.6876 7.84973 37.2947 7.55505C36.9018 7.26037 36.4106 7.11303 35.8213 7.11303Z" fill="white"/>
<path d="M31.2478 13.8573H23.3896V11.6106L28.231 6.8274V6.68245H23.5703V4.68945H30.9768V6.95423L26.1355 11.7193V11.8643H31.2478V13.8573Z" fill="white"/>
</svg>
