<svg width="14" height="14" viewBox="0 0 14 14" fill="none" xmlns="http://www.w3.org/2000/svg">
<g clip-path="url(#clip0_13061_104033)">
<path fill-rule="evenodd" clip-rule="evenodd" d="M6.99647 12.13C9.83156 12.13 12.1298 9.83181 12.1298 6.99671C12.1298 4.16165 9.83156 1.86338 6.99647 1.86338C4.1614 1.86338 1.86313 4.16165 1.86313 6.99671C1.86313 9.83181 4.1614 12.13 6.99647 12.13ZM6.99647 13.53C10.6047 13.53 13.5298 10.605 13.5298 6.99671C13.5298 3.38846 10.6047 0.463379 6.99647 0.463379C3.38821 0.463379 0.463135 3.38846 0.463135 6.99671C0.463135 10.605 3.38821 13.53 6.99647 13.53Z" fill="#B68B07"/>
<path d="M10.3298 6.99671C10.3298 8.83767 8.83745 10.33 6.9965 10.33L6.99626 3.66338C8.83722 3.66338 10.3298 5.15576 10.3298 6.99671Z" fill="#B68B07"/>
</g>
<defs>
<clipPath id="clip0_13061_104033">
<rect width="14" height="14" fill="white"/>
</clipPath>
</defs>
</svg>
