<svg width="44" height="44" viewBox="0 0 44 44" fill="none" xmlns="http://www.w3.org/2000/svg">
<rect width="44" height="44" rx="22" fill="#99EC64"/>
<path d="M13.6534 8.30469L27.3442 21.9993L13.6549 35.6943C13.3953 35.5846 13.168 35.3926 13.0159 35.13C12.8974 34.9253 12.835 34.693 12.835 34.4563V9.54234C12.835 8.9865 13.1723 8.50943 13.6534 8.30469ZM28.2948 22.9498L31.3897 26.0447L16.6855 34.5591L28.2948 22.9498ZM32.5956 18.6502L36.3696 20.8359C37.0123 21.2079 37.2317 22.0304 36.8595 22.673C36.7419 22.8762 36.573 23.0452 36.3696 23.1629L32.5943 25.3483L29.2453 21.9993L32.5956 18.6502ZM16.6855 9.4394L31.391 17.9524L28.2948 21.0487L16.6855 9.4394Z" fill="#20195F"/>
</svg>
