<svg width="14" height="14" viewBox="0 0 14 14" fill="none" xmlns="http://www.w3.org/2000/svg">
<g clip-path="url(#clip0_13061_103993)">
<path fill-rule="evenodd" clip-rule="evenodd" d="M7 13.125C10.3828 13.125 13.125 10.3828 13.125 7C13.125 3.61726 10.3828 0.875 7 0.875C3.61726 0.875 0.875 3.61726 0.875 7C0.875 10.3828 3.61726 13.125 7 13.125ZM10.3107 5.62538C10.5751 5.3262 10.5608 4.8563 10.2788 4.57583C9.9967 4.29535 9.55378 4.31051 9.28935 4.60968L6.25556 8.04232L4.66506 6.54264C4.37611 6.27019 3.93366 6.2978 3.67682 6.6043C3.41998 6.9108 3.446 7.38014 3.73496 7.65258L5.49528 9.31236C5.96786 9.758 6.68905 9.72318 7.1215 9.23388L10.3107 5.62538Z" fill="#5DA481"/>
</g>
<defs>
<clipPath id="clip0_13061_103993">
<rect width="14" height="14" rx="4" fill="white"/>
</clipPath>
</defs>
</svg>
