<svg width="18" height="18" viewBox="0 0 18 18" fill="none" xmlns="http://www.w3.org/2000/svg">
<path d="M7.25323 3.10211C7.29456 2.66737 7.49648 2.26365 7.81956 1.96982C8.14264 1.676 8.56365 1.51318 9.00036 1.51318C9.43706 1.51318 9.85808 1.676 10.1812 1.96982C10.5042 2.26365 10.7062 2.66737 10.7475 3.10211C10.7723 3.38295 10.8645 3.65368 11.0161 3.89137C11.1677 4.12906 11.3744 4.32672 11.6186 4.46762C11.8628 4.60852 12.1373 4.68851 12.419 4.70083C12.7007 4.71314 12.9812 4.65742 13.2367 4.53836C13.6336 4.3582 14.0832 4.33213 14.4982 4.46523C14.9132 4.59833 15.2639 4.88108 15.4819 5.25844C15.6999 5.63581 15.7697 6.08079 15.6777 6.50679C15.5857 6.93279 15.3385 7.30933 14.9842 7.56311C14.7535 7.725 14.5652 7.94007 14.4352 8.19013C14.3051 8.4402 14.2373 8.71789 14.2373 8.99974C14.2373 9.28158 14.3051 9.55928 14.4352 9.80934C14.5652 10.0594 14.7535 10.2745 14.9842 10.4364C15.3385 10.6902 15.5857 11.0667 15.6777 11.4927C15.7697 11.9187 15.6999 12.3637 15.4819 12.741C15.2639 13.1184 14.9132 13.4011 14.4982 13.5342C14.0832 13.6673 13.6336 13.6413 13.2367 13.4611C12.9812 13.3421 12.7007 13.2863 12.419 13.2986C12.1373 13.311 11.8628 13.391 11.6186 13.5319C11.3744 13.6728 11.1677 13.8704 11.0161 14.1081C10.8645 14.3458 10.7723 14.6165 10.7475 14.8974C10.7062 15.3321 10.5042 15.7358 10.1812 16.0297C9.85808 16.3235 9.43706 16.4863 9.00036 16.4863C8.56365 16.4863 8.14264 16.3235 7.81956 16.0297C7.49648 15.7358 7.29456 15.3321 7.25323 14.8974C7.22844 14.6164 7.13631 14.3456 6.98463 14.1078C6.83296 13.87 6.62621 13.6723 6.38191 13.5314C6.1376 13.3905 5.86294 13.3105 5.58117 13.2983C5.2994 13.2861 5.01884 13.3419 4.76323 13.4611C4.3664 13.6413 3.91673 13.6673 3.50173 13.5342C3.08674 13.4011 2.73611 13.1184 2.5181 12.741C2.30008 12.3637 2.23027 11.9187 2.32225 11.4927C2.41424 11.0667 2.66144 10.6902 3.01573 10.4364C3.24645 10.2745 3.43478 10.0594 3.5648 9.80934C3.69482 9.55928 3.7627 9.28158 3.7627 8.99974C3.7627 8.71789 3.69482 8.4402 3.5648 8.19013C3.43478 7.94007 3.24645 7.725 3.01573 7.56311C2.66193 7.3092 2.41517 6.93281 2.32341 6.5071C2.23165 6.08139 2.30144 5.63677 2.51922 5.25965C2.737 4.88253 3.08722 4.59985 3.5018 4.46654C3.91639 4.33324 4.36572 4.35884 4.76248 4.53836C5.01805 4.65742 5.29854 4.71314 5.58021 4.70083C5.86188 4.68851 6.13643 4.60852 6.38064 4.46762C6.62484 4.32672 6.8315 4.12906 6.98313 3.89137C7.13476 3.65368 7.2269 3.38295 7.25173 3.10211" stroke="#636363" stroke-width="1.5" stroke-linecap="round" stroke-linejoin="round"/>
<path d="M9 11.25C10.2426 11.25 11.25 10.2426 11.25 9C11.25 7.75736 10.2426 6.75 9 6.75C7.75736 6.75 6.75 7.75736 6.75 9C6.75 10.2426 7.75736 11.25 9 11.25Z" stroke="#636363" stroke-width="1.5" stroke-linecap="round" stroke-linejoin="round"/>
</svg>
