<svg width="18" height="18" viewBox="0 0 18 18" fill="none" xmlns="http://www.w3.org/2000/svg">
<g clip-path="url(#clip0_12056_35710)">
<path d="M0 0H18V18H0" fill="#B31942"/>
<path d="M0 2.0769H18H0ZM18 4.84614H0H18ZM0 7.61537H18H0ZM18 10.3846H0H18ZM0 13.1538H18H0ZM18 15.9231H0H18Z" fill="black"/>
<path fill-rule="evenodd" clip-rule="evenodd" d="M18 2.76926H0V1.38464H18V2.76926ZM0 4.15387H18V5.53849H0V4.15387ZM18 8.30772H0V6.92311H18V8.30772ZM0 9.69234H18V11.077H0V9.69234ZM18 13.8462H0V12.4616H18V13.8462ZM0 15.2308H18V16.6154H0V15.2308Z" fill="white"/>
<path d="M-4.5 0H9.25281V9.69231H-4.5" fill="#0A3161"/>
<path d="M0.0847183 1.38464L0.411994 2.38656L-0.444824 1.76734H0.614261L-0.242557 2.38656L0.0847183 1.38464Z" fill="white"/>
<path d="M0.0847183 3.32312L0.411994 4.32504L-0.444824 3.70582H0.614261L-0.242557 4.32504L0.0847183 3.32312Z" fill="white"/>
<path d="M0.0847183 5.2616L0.411994 6.26351L-0.444824 5.64429H0.614261L-0.242557 6.26351L0.0847183 5.2616Z" fill="white"/>
<path d="M0.0847183 7.20007L0.411994 8.20199L-0.444824 7.58277H0.614261L-0.242557 8.20199L0.0847183 7.20007Z" fill="white"/>
<path d="M1.23071 0.415405L1.55799 1.41732L0.701172 0.798104H1.76026L0.903439 1.41732L1.23071 0.415405Z" fill="white"/>
<path d="M1.23071 2.35388L1.55799 3.3558L0.701172 2.73658H1.76026L0.903439 3.3558L1.23071 2.35388Z" fill="white"/>
<path d="M1.23071 4.2923L1.55799 5.29421L0.701172 4.675H1.76026L0.903439 5.29421L1.23071 4.2923Z" fill="white"/>
<path d="M1.23071 6.23077L1.55799 7.23269L0.701172 6.61347H1.76026L0.903439 7.23269L1.23071 6.23077Z" fill="white"/>
<path d="M1.23071 8.16925L1.55799 9.17117L0.701172 8.55195H1.76026L0.903439 9.17117L1.23071 8.16925Z" fill="white"/>
<path d="M2.37671 1.38464L2.70399 2.38656L1.84717 1.76734H2.90625L2.04944 2.38656L2.37671 1.38464Z" fill="white"/>
<path d="M2.37671 3.32312L2.70399 4.32504L1.84717 3.70582H2.90625L2.04944 4.32504L2.37671 3.32312Z" fill="white"/>
<path d="M2.37671 5.2616L2.70399 6.26351L1.84717 5.64429H2.90625L2.04944 6.26351L2.37671 5.2616Z" fill="white"/>
<path d="M2.37671 7.20007L2.70399 8.20199L1.84717 7.58277H2.90625L2.04944 8.20199L2.37671 7.20007Z" fill="white"/>
<path d="M3.52271 0.415405L3.84998 1.41732L2.99316 0.798104H4.05225L3.19543 1.41732L3.52271 0.415405Z" fill="white"/>
<path d="M3.52271 2.35388L3.84998 3.3558L2.99316 2.73658H4.05225L3.19543 3.3558L3.52271 2.35388Z" fill="white"/>
<path d="M3.52271 4.2923L3.84998 5.29421L2.99316 4.675H4.05225L3.19543 5.29421L3.52271 4.2923Z" fill="white"/>
<path d="M3.52271 6.23077L3.84998 7.23269L2.99316 6.61347H4.05225L3.19543 7.23269L3.52271 6.23077Z" fill="white"/>
<path d="M3.52271 8.16925L3.84998 9.17117L2.99316 8.55195H4.05225L3.19543 9.17117L3.52271 8.16925Z" fill="white"/>
<path d="M4.6687 1.38464L4.99598 2.38656L4.13916 1.76734H5.19825L4.34143 2.38656L4.6687 1.38464Z" fill="white"/>
<path d="M4.6687 3.32312L4.99598 4.32504L4.13916 3.70582H5.19825L4.34143 4.32504L4.6687 3.32312Z" fill="white"/>
<path d="M4.6687 5.2616L4.99598 6.26351L4.13916 5.64429H5.19825L4.34143 6.26351L4.6687 5.2616Z" fill="white"/>
<path d="M4.6687 7.20007L4.99598 8.20199L4.13916 7.58277H5.19825L4.34143 8.20199L4.6687 7.20007Z" fill="white"/>
<path d="M5.8147 0.415405L6.14197 1.41732L5.28516 0.798104H6.34424L5.48742 1.41732L5.8147 0.415405Z" fill="white"/>
<path d="M5.8147 2.35388L6.14197 3.3558L5.28516 2.73658H6.34424L5.48742 3.3558L5.8147 2.35388Z" fill="white"/>
<path d="M5.8147 4.2923L6.14197 5.29421L5.28516 4.675H6.34424L5.48742 5.29421L5.8147 4.2923Z" fill="white"/>
<path d="M5.8147 6.23077L6.14197 7.23269L5.28516 6.61347H6.34424L5.48742 7.23269L5.8147 6.23077Z" fill="white"/>
<path d="M5.8147 8.16925L6.14197 9.17117L5.28516 8.55195H6.34424L5.48742 9.17117L5.8147 8.16925Z" fill="white"/>
<path d="M6.96118 1.38464L7.28846 2.38656L6.43164 1.76734H7.49073L6.63391 2.38656L6.96118 1.38464Z" fill="white"/>
<path d="M6.96118 3.32312L7.28846 4.32504L6.43164 3.70582H7.49073L6.63391 4.32504L6.96118 3.32312Z" fill="white"/>
<path d="M6.96118 5.2616L7.28846 6.26351L6.43164 5.64429H7.49073L6.63391 6.26351L6.96118 5.2616Z" fill="white"/>
<path d="M6.96118 7.20007L7.28846 8.20199L6.43164 7.58277H7.49073L6.63391 8.20199L6.96118 7.20007Z" fill="white"/>
<path d="M8.10669 0.415405L8.43397 1.41732L7.57715 0.798104H8.63623L7.77942 1.41732L8.10669 0.415405Z" fill="white"/>
<path d="M8.10669 2.35388L8.43397 3.3558L7.57715 2.73658H8.63623L7.77942 3.3558L8.10669 2.35388Z" fill="white"/>
<path d="M8.10669 4.2923L8.43397 5.29421L7.57715 4.675H8.63623L7.77942 5.29421L8.10669 4.2923Z" fill="white"/>
<path d="M8.10669 6.23077L8.43397 7.23269L7.57715 6.61347H8.63623L7.77942 7.23269L8.10669 6.23077Z" fill="white"/>
<path d="M8.10669 8.16925L8.43397 9.17117L7.57715 8.55195H8.63623L7.77942 9.17117L8.10669 8.16925Z" fill="white"/>
</g>
<defs>
<clipPath id="clip0_12056_35710">
<rect width="18" height="18" rx="9" fill="white"/>
</clipPath>
</defs>
</svg>
