<svg width="18" height="18" viewBox="0 0 18 18" fill="none" xmlns="http://www.w3.org/2000/svg">
<g clip-path="url(#clip0_13155_169243)">
<path d="M9 18C13.9706 18 18 13.9706 18 9C18 4.02943 13.9706 0 9 0C4.02943 0 0 4.02943 0 9C0 13.9706 4.02943 18 9 18Z" fill="#2A70DB"/>
<path d="M11.2624 10.1949C11.2624 9.00013 10.5424 8.59064 9.10238 8.41964C8.07413 8.28295 7.86882 8.01014 7.86882 7.53201C7.86882 7.05389 8.21194 6.74676 8.89707 6.74676C9.51413 6.74676 9.85726 6.95151 10.0283 7.46395C10.046 7.5135 10.0786 7.55642 10.1216 7.58685C10.1645 7.61734 10.2157 7.63393 10.2684 7.63438H10.8169C10.8486 7.63523 10.8801 7.62966 10.9095 7.61796C10.9389 7.60626 10.9657 7.58865 10.9882 7.56632C11.0106 7.54399 11.0283 7.51727 11.0401 7.48791C11.052 7.45849 11.0577 7.42699 11.0571 7.39532V7.36157C10.99 6.99083 10.8024 6.6526 10.5234 6.39942C10.2444 6.14624 9.8896 5.99233 9.51413 5.96151V5.14252C9.51413 5.00583 9.41119 4.90345 9.24019 4.86914H8.72551C8.58882 4.86914 8.48588 4.97152 8.45157 5.14252V5.92776C7.42276 6.06389 6.77194 6.74676 6.77194 7.60064C6.77194 8.72676 7.45707 9.17057 8.89707 9.34157C9.85726 9.51201 10.1655 9.71732 10.1655 10.2635C10.1655 10.8091 9.68569 11.1849 9.03432 11.1849C8.14276 11.1849 7.83451 10.8097 7.73157 10.2973C7.69782 10.1611 7.59432 10.0925 7.49138 10.0925H6.90863C6.87696 10.0917 6.84552 10.0974 6.81616 10.1092C6.78674 10.1209 6.76008 10.1385 6.73763 10.1608C6.71524 10.1831 6.69764 10.2098 6.68583 10.2392C6.67401 10.2685 6.66828 10.3 6.66901 10.3316V10.3653C6.80569 11.2192 7.35469 11.8334 8.48588 12.0044V12.824C8.48588 12.9601 8.58882 13.0631 8.75982 13.0968H9.27451C9.41119 13.0968 9.51413 12.9944 9.54844 12.824V12.0039C10.5773 11.8334 11.2624 11.1168 11.2624 10.1949Z" fill="white"/>
<path d="M7.25134 13.7796C4.57723 12.8233 3.20586 9.85331 4.20036 7.22475C4.71448 5.79037 5.84565 4.69856 7.25134 4.18612C7.38859 4.11806 7.45665 4.01569 7.45665 3.84469V3.36656C7.45665 3.23044 7.38859 3.12806 7.25134 3.09375C7.21703 3.09375 7.1484 3.09375 7.11409 3.1275C6.34262 3.36843 5.62639 3.7596 5.00666 4.27847C4.38695 4.79735 3.876 5.43368 3.50323 6.15083C3.13045 6.86801 2.90322 7.6518 2.83462 8.45713C2.76601 9.26246 2.85739 10.0734 3.10349 10.8433C3.71999 12.7558 5.1943 14.2239 7.11409 14.8382C7.25134 14.9062 7.38859 14.8382 7.42234 14.7015C7.45665 14.6677 7.45665 14.6329 7.45665 14.5648V14.0867C7.45665 13.9843 7.35428 13.8482 7.25134 13.7796ZM10.8851 3.12806C10.7478 3.05944 10.6106 3.12806 10.5768 3.26419C10.5425 3.2985 10.5425 3.33281 10.5425 3.40088V3.879C10.5425 4.01569 10.6449 4.15181 10.7478 4.22044C13.422 5.17669 14.7933 8.14669 13.7988 10.7752C13.2847 12.2096 12.1535 13.3014 10.7478 13.8139C10.6106 13.8819 10.5425 13.9843 10.5425 14.1553V14.6334C10.5425 14.7696 10.6106 14.8719 10.7478 14.9062C10.7821 14.9062 10.8508 14.9062 10.8851 14.8725C11.6566 14.6316 12.3728 14.2404 12.9926 13.7215C13.6123 13.2027 14.1232 12.5663 14.496 11.8492C14.8688 11.132 15.096 10.3482 15.1646 9.54287C15.2332 8.73754 15.1418 7.92658 14.8957 7.15669C14.2792 5.21044 12.7706 3.74231 10.8851 3.12806Z" fill="white"/>
</g>
<defs>
<clipPath id="clip0_13155_169243">
<rect width="18" height="18" fill="white"/>
</clipPath>
</defs>
</svg>
