<svg width="18" height="18" viewBox="0 0 18 18" fill="none" xmlns="http://www.w3.org/2000/svg">
<g clip-path="url(#clip0_13155_167998)">
<path d="M9 0C13.9703 0 18 4.02966 18 9C18 13.9703 13.9702 18 9 18C4.02984 18 0 13.9714 0 9C0 4.02858 4.02912 0 9 0Z" fill="#07432B"/>
<path d="M10.111 7.80066V6.46182H13.1726V4.42188H4.83571V6.46182H7.89769V7.79958C5.40919 7.91388 3.53809 8.40672 3.53809 8.99712C3.53809 9.58752 5.41009 10.0804 7.89769 10.1954V14.4839H10.1117V10.195C12.5957 10.0804 14.463 9.58788 14.463 8.99802C14.463 8.40816 12.5957 7.91568 10.1117 7.80102M10.1117 9.83178V9.8307C10.0492 9.83466 9.72829 9.85392 9.01369 9.85392C8.44237 9.85392 8.04043 9.83772 7.89877 9.83034V9.83214C5.70025 9.73476 4.05919 9.35189 4.05919 8.8938C4.05919 8.4357 5.70043 8.05338 7.89877 7.95582V9.45072C8.04277 9.46062 8.45461 9.48492 9.02305 9.48492C9.70579 9.48492 10.049 9.45648 10.112 9.45072V7.95582C12.3062 8.05356 13.9435 8.43678 13.9435 8.89326C13.9435 9.34974 12.3055 9.73314 10.112 9.83088" fill="white"/>
</g>
<defs>
<clipPath id="clip0_13155_167998">
<rect width="18" height="18" fill="white"/>
</clipPath>
</defs>
</svg>
